<?xml version="1.0" standalone="no"?>
<!DOCTYPE svg PUBLIC "-//W3C//DTD SVG 20010904//EN"
 "http://www.w3.org/TR/2001/REC-SVG-20010904/DTD/svg10.dtd">
<svg version="1.0" xmlns="http://www.w3.org/2000/svg"
 width="840.000000pt" height="855.000000pt" viewBox="0 0 840.000000 855.000000"
 preserveAspectRatio="xMidYMid meet">

<g transform="translate(0.000000,855.000000) scale(0.100000,-0.100000)"
fill="#000000" stroke="none">
<path d="M3565 8127 c-86 -34 -133 -80 -160 -158 -19 -53 -19 -97 0 -153 9
-25 124 -265 256 -533 133 -268 261 -530 286 -582 l44 -94 -97 -491 c-53 -270
-99 -493 -101 -495 -2 -3 -112 8 -246 24 -133 16 -264 28 -292 27 -58 -3 -129
-32 -169 -70 -36 -34 -102 -135 -115 -176 -6 -17 -59 -247 -117 -511 -126
-561 -128 -583 -74 -691 120 -238 477 -236 582 3 16 35 55 195 98 403 40 190
77 349 81 354 5 5 123 -4 291 -22 156 -18 366 -41 468 -52 102 -12 190 -22
196 -25 6 -2 15 -21 18 -42 8 -39 214 -1013 242 -1137 25 -116 71 -187 156
-244 l41 -27 -36 -8 c-19 -5 -53 -24 -75 -43 -54 -46 -76 -104 -70 -188 5 -81
41 -139 108 -173 58 -29 752 -183 825 -183 69 0 100 12 139 54 42 46 240 199
243 189 2 -5 14 -51 27 -103 13 -52 54 -203 90 -335 89 -319 159 -603 153
-618 -4 -11 -293 -209 -423 -290 -92 -57 -138 -128 -150 -228 -5 -45 9 -125
81 -464 47 -226 93 -431 101 -457 20 -61 95 -145 152 -169 197 -85 422 50 422
252 0 31 -27 189 -60 349 -33 160 -60 297 -60 304 0 7 48 45 108 85 59 40 160
110 226 154 114 78 119 81 133 62 8 -11 72 -135 141 -275 l127 -255 96 -100
c52 -55 174 -185 271 -290 96 -104 184 -198 194 -207 70 -62 209 -80 295 -39
198 95 242 325 92 476 -36 36 -270 292 -398 433 -65 73 -269 459 -291 552 -16
70 -198 835 -240 1010 -14 58 -41 170 -60 248 -47 197 -89 279 -204 393 -71
71 -102 94 -171 127 -142 67 -253 84 -394 58 -151 -28 -220 -68 -480 -273
-136 -108 -236 -181 -245 -178 -8 2 -121 27 -250 55 -129 28 -239 52 -245 54
-5 2 10 8 35 15 146 37 238 142 247 281 4 56 -18 171 -167 860 -95 437 -174
813 -177 835 -3 27 18 147 61 360 84 407 88 425 94 425 2 0 98 -59 214 -131
115 -72 225 -137 244 -145 54 -23 141 -18 203 11 44 21 98 70 280 256 260 265
286 302 285 399 -1 106 -58 190 -163 238 -44 20 -64 24 -112 19 -87 -8 -130
-38 -295 -212 -82 -85 -154 -155 -160 -155 -6 0 -124 73 -260 161 -404 262
-426 276 -469 282 -22 3 -166 33 -320 66 -154 34 -293 64 -309 67 -31 7 -14
-25 -362 694 -76 157 -148 293 -168 317 -48 55 -108 83 -177 82 -30 0 -67 -6
-84 -12z"/>
<path d="M4822 8080 c-162 -23 -306 -129 -382 -280 -41 -83 -53 -149 -47 -259
6 -113 23 -165 87 -258 109 -160 312 -247 500 -214 411 74 572 569 281 862
-120 120 -273 172 -439 149z"/>
<path d="M2437 5076 c-60 -22 -97 -58 -127 -121 -15 -33 -25 -115 -50 -405
-32 -363 -32 -366 -91 -609 -32 -134 -60 -245 -61 -246 -2 -2 -36 -19 -76 -39
l-74 -37 -68 15 c-171 39 -316 -3 -454 -133 -58 -56 -120 -139 -145 -196 -7
-16 -85 -201 -173 -410 -88 -209 -264 -623 -390 -920 -127 -297 -294 -688
-371 -870 l-141 -330 0 -85 c-1 -75 2 -90 26 -131 33 -57 87 -105 147 -133 35
-15 66 -20 131 -20 96 0 143 18 204 78 41 42 55 71 191 396 214 508 344 805
353 805 6 0 90 -71 187 -158 160 -144 176 -161 171 -185 -3 -15 -22 -155 -42
-312 -40 -314 -41 -398 -6 -465 63 -122 215 -182 357 -141 80 24 164 106 188
186 18 61 107 805 107 898 0 89 -32 142 -148 247 -112 101 -252 235 -252 242
0 9 205 464 292 647 50 105 106 236 125 290 22 66 45 112 67 136 51 56 96 127
121 188 13 31 68 237 123 457 l100 400 37 375 c20 206 35 399 33 428 -8 94
-88 163 -197 169 -32 2 -73 -3 -94 -11z"/>
<path d="M6053 4880 c-123 -22 -219 -75 -307 -171 -92 -99 -136 -217 -136
-362 1 -146 47 -254 155 -363 336 -338 904 -102 905 376 0 221 -156 435 -365
499 -77 24 -183 33 -252 21z"/>
<path d="M1487 4765 c-192 -49 -344 -196 -392 -382 -19 -72 -19 -202 0 -272
55 -208 233 -364 444 -390 272 -34 515 134 586 404 66 257 -83 528 -343 622
-85 31 -213 39 -295 18z"/>
<path d="M4341 4290 c-49 -12 -113 -60 -137 -104 -40 -70 -38 -97 21 -395 l55
-279 -2 -208 -3 -209 -185 -17 c-481 -43 -877 -78 -895 -78 -18 0 -73 49 -179
158 l-38 40 37 283 c32 246 36 290 26 335 -45 198 -323 229 -415 46 -11 -21
-33 -158 -62 -394 -41 -323 -45 -368 -34 -416 12 -53 17 -59 401 -443 l389
-389 0 -245 0 -244 -302 -3 -303 -3 -53 -29 c-59 -33 -100 -88 -129 -170 -16
-46 -18 -93 -18 -476 0 -411 1 -426 21 -471 52 -111 149 -174 269 -173 135 0
235 72 278 198 5 17 13 148 16 291 l6 260 445 0 445 0 0 -275 0 -275 30 -54
c32 -57 69 -91 128 -116 55 -23 872 -22 939 1 138 47 216 203 173 350 -13 47
-27 69 -70 111 -29 28 -70 57 -92 64 -24 8 -126 14 -280 16 l-243 5 0 703 0
703 30 12 c42 17 97 82 110 129 7 26 9 214 8 563 l-3 523 -56 272 c-60 287
-73 323 -132 367 -59 43 -119 54 -196 36z"/>
<path d="M3605 4213 c-142 -19 -286 -112 -367 -237 -108 -168 -108 -395 0
-562 185 -285 582 -322 813 -76 131 139 175 306 129 487 -25 97 -56 152 -133
232 -114 119 -280 178 -442 156z"/>
</g>
</svg>
